<?xml version="1.0" standalone="no"?>
<!DOCTYPE svg PUBLIC "-//W3C//DTD SVG 20010904//EN"
 "http://www.w3.org/TR/2001/REC-SVG-20010904/DTD/svg10.dtd">
<svg version="1.0" xmlns="http://www.w3.org/2000/svg"
 width="1080.000000pt" height="652.000000pt" viewBox="0 0 1080.000000 652.000000"
 preserveAspectRatio="xMidYMid meet">

<g transform="translate(0.000000,652.000000) scale(0.100000,-0.100000)"
fill="#000000" stroke="none">
<path d="M3365 4981 c-11 -10 -108 -86 -215 -168 -241 -184 -856 -657 -1045
-803 -109 -85 -288 -223 -402 -309 -61 -47 -223 -171 -359 -276 -136 -104
-290 -223 -343 -263 -53 -41 -97 -77 -99 -81 -1 -4 185 -151 414 -326 1254
-963 1674 -1286 1946 -1498 77 -59 140 -107 141 -107 1 0 2 309 2 687 l0 688
3168 3 3167 2 -2 548 -3 547 -3165 5 -3165 5 0 683 c0 460 -3 682 -10 682 -6
0 -19 -9 -30 -19z"/>
</g>
</svg>
