<?xml version="1.0" standalone="no"?>
<!DOCTYPE svg PUBLIC "-//W3C//DTD SVG 20010904//EN"
 "http://www.w3.org/TR/2001/REC-SVG-20010904/DTD/svg10.dtd">
<svg version="1.0" xmlns="http://www.w3.org/2000/svg"
 width="784.000000pt" height="1168.000000pt" viewBox="0 0 784.000000 1168.000000"
 preserveAspectRatio="xMidYMid meet">

<g transform="translate(0.000000,1168.000000) scale(0.100000,-0.100000)"
fill="#000000" stroke="none">
<path d="M3778 8211 c-928 -920 -1798 -1794 -1798 -1808 0 -12 467 -478 479
-478 6 0 240 229 521 509 316 316 514 506 518 499 5 -8 13 -9 22 -3 8 6 19 10
24 10 8 0 2 -1345 -9 -2010 -2 -146 -7 -589 -10 -986 l-6 -721 346 -7 c190 -4
349 -5 353 -2 9 5 8 -19 22 1296 17 1550 28 2422 32 2424 2 2 18 6 37 10 33 6
37 2 547 -506 282 -282 517 -514 522 -516 14 -4 475 453 471 466 -9 26 -1919
1952 -1933 1951 -6 -1 -68 -59 -138 -128z"/>
</g>
</svg>
