<?xml version="1.0" encoding="UTF-8"?>
<svg version="1.1" xmlns="http://www.w3.org/2000/svg" width="484" height="669">
<path d="M0 0 C1.03997218 -0.00467997 2.07994436 -0.00935994 3.15143085 -0.01418173 C6.61180819 -0.02608046 10.07178573 -0.01669426 13.53216553 -0.00723267 C16.02321096 -0.01130073 18.51425458 -0.01664393 21.0052948 -0.02316284 C27.05529054 -0.03540069 33.10513133 -0.03363881 39.15512094 -0.02492492 C44.0770637 -0.01813136 48.99897521 -0.01723887 53.92092133 -0.02049637 C54.62324142 -0.02095607 55.32556152 -0.02141577 56.04916404 -0.0218894 C57.47626347 -0.02284865 58.90336289 -0.02382129 60.33046231 -0.02480717 C73.69588113 -0.03335067 87.06123812 -0.0235446 100.4266468 -0.00740607 C111.86989109 0.00598444 123.313044 0.00367747 134.75628662 -0.01016235 C148.06985213 -0.02625685 161.38336344 -0.0325145 174.69693732 -0.02332556 C176.11981439 -0.02237001 177.54269146 -0.02142689 178.96556854 -0.02049637 C180.01546095 -0.01980213 180.01546095 -0.01980213 181.0865633 -0.01909386 C185.9948382 -0.01651468 190.90307844 -0.02085197 195.81134796 -0.02793503 C202.43359418 -0.03728201 209.05569574 -0.03052204 215.67793465 -0.01325226 C218.10057097 -0.00930451 220.52322186 -0.0103919 222.94585228 -0.01704025 C244.17289356 -0.06989586 259.36446055 0.89923002 275.39837646 16.06845093 C283.62107445 24.68774207 289.84299831 34.30320731 294.21087646 45.38095093 C294.58406006 46.30013306 294.58406006 46.30013306 294.96478271 47.23788452 C298.05797966 54.88308688 300.7476014 62.22119209 301.88665771 70.43954468 C302.01773602 72.38146803 302.01773602 72.38146803 303.21087646 73.38095093 C307.95079946 94.62050083 306.64343194 117.30157053 306.60305047 138.90523577 C306.59618664 144.35042437 306.606777 149.79558552 306.61499023 155.24076843 C306.62825194 165.87378042 306.62548397 176.50672849 306.61675231 187.13974287 C306.60994688 195.78883955 306.60907133 204.43791846 306.61232376 213.08701706 C306.61278346 214.32312638 306.61324316 215.5592357 306.61371679 216.83280288 C306.61467607 219.34476572 306.61564871 221.85672855 306.61663456 224.36869137 C306.62492345 247.19259135 306.61636283 270.01645889 306.60060677 292.84035335 C306.58636947 313.62213359 306.58765002 334.40385866 306.60198975 355.18563843 C306.61809459 378.60305986 306.62434584 402.02045084 306.61515296 425.43787706 C306.61419741 427.93942348 306.6132543 430.4409699 306.61232376 432.94251633 C306.61186093 434.17299077 306.61139811 435.4034652 306.61092126 436.67122675 C306.60834176 445.30093269 306.61267972 453.93061892 306.61976242 462.56032181 C306.62821523 473.08973455 306.62581819 483.61908028 306.60992019 494.14848544 C306.60208857 499.51040153 306.59885765 504.8722063 306.60886765 510.23412132 C306.6980259 562.35923973 306.6980259 562.35923973 299.21087646 585.38095093 C299.00623779 586.01516968 298.80159912 586.64938843 298.59075928 587.30282593 C292.05363878 607.15847443 280.99224914 628.38872646 261.78363037 638.37631226 C255.97233612 641.28045426 251.18895618 643.50204281 244.66769123 643.51237869 C243.75611108 643.51621984 242.84453093 643.52006098 241.90532714 643.52401853 C240.40870655 643.5227188 240.40870655 643.5227188 238.8818512 643.52139282 C237.28753904 643.52584951 237.28753904 643.52584951 235.66101855 643.53039622 C232.08754206 643.53909102 228.51409904 643.54059214 224.94061279 643.54208374 C222.38322884 643.54671138 219.82584559 643.55173596 217.26846313 643.55712891 C210.31170574 643.57026056 203.35495937 643.57673614 196.39819169 643.58113956 C192.05289669 643.5839033 187.70760391 643.58814092 183.36231041 643.59264374 C171.3275876 643.60483615 159.29286656 643.61513517 147.2581377 643.61851883 C146.48799571 643.6187384 145.71785372 643.61895796 144.92437408 643.61918418 C144.15240419 643.61940246 143.3804343 643.61962074 142.58507138 643.61984563 C141.02080524 643.62028909 139.45653909 643.62073566 137.89227295 643.6211853 C136.72838147 643.62151745 136.72838147 643.62151745 135.54097702 643.6218563 C122.9731239 643.62580283 110.40532882 643.64325252 97.83749811 643.66654482 C84.92919405 643.69027466 72.02091909 643.70272144 59.11259288 643.70388675 C51.86713703 643.70480265 44.62175678 643.71053343 37.37632179 643.72870636 C30.55965397 643.74574375 23.74313171 643.74734774 16.92644882 643.73856735 C14.4259204 643.73779638 11.92538429 643.74214753 9.42487526 643.7520256 C6.00801931 643.76473085 2.59167247 643.75887548 -0.82518005 643.7484436 C-1.81177351 643.75650001 -2.79836696 643.76455641 -3.81485718 643.77285695 C-12.08355871 643.71392515 -18.99129943 641.8425067 -26.03912354 637.44345093 C-26.82802979 636.96005249 -27.61693604 636.47665405 -28.42974854 635.97860718 C-41.25561997 627.2935386 -48.58739952 614.19754268 -54.78912354 600.38095093 C-55.27123291 599.35227905 -55.75334229 598.32360718 -56.25006104 597.26376343 C-64.69970599 578.36728471 -67.21661936 556.87171698 -67.30084229 536.36141968 C-67.3180304 534.69949254 -67.33629864 533.03757631 -67.35551453 531.37567139 C-67.40442437 526.76382212 -67.43391896 522.15203001 -67.45908356 517.5399971 C-67.47700289 514.50418226 -67.50006693 511.46844601 -67.5246582 508.43267822 C-67.66168476 491.41560866 -67.73655441 474.39847007 -67.78912354 457.38095093 C-67.79129222 456.68292799 -67.7934609 455.98490505 -67.7956953 455.2657299 C-67.94482942 406.73766542 -67.91872886 358.20991987 -67.82358837 309.681777 C-67.80308036 299.19342239 -67.78461325 288.70507026 -67.77020264 278.21670532 C-67.73507964 252.92797268 -67.68590018 227.63937029 -67.60200691 202.35074711 C-67.56492104 191.10496295 -67.53357812 179.85924092 -67.51867676 168.61340332 C-67.50582954 159.0224312 -67.47895205 149.43161899 -67.4347111 139.84073836 C-67.41240085 134.92378412 -67.3961703 130.00702298 -67.39720535 125.0900135 C-67.39636446 86.82583042 -65.0551433 44.62166103 -36.78912354 15.38095093 C-26.0492237 4.74294767 -15.16883263 -0.10646132 0 0 Z M-31.78912354 22.38095093 C-61.15169668 56.34580826 -59.1077913 105.20505512 -59.03591383 147.20312822 C-59.02925126 152.40076644 -59.03430357 157.59839626 -59.03779602 162.79603577 C-59.042803 172.9420818 -59.0372413 183.08809488 -59.02794572 193.23413681 C-59.01749463 205.07231808 -59.01763366 216.91049248 -59.0181183 228.7486775 C-59.01861742 249.87895718 -59.00949685 271.00922165 -58.99493408 292.13949585 C-58.98083718 312.60466794 -58.97376398 333.06982665 -58.97442627 353.53500366 C-58.97446623 354.79669242 -58.97450618 356.05838119 -58.97454735 357.35830294 C-58.9745877 358.6178972 -58.97462806 359.87749146 -58.97466964 361.17525524 C-58.97536072 384.53939571 -58.96946396 407.90353054 -58.96051642 431.26766918 C-58.95751022 439.50447513 -58.95643808 447.74128004 -58.95598412 455.97808647 C-58.95529961 466.02087106 -58.95080176 476.06364615 -58.94165131 486.10642671 C-58.93705833 491.22263189 -58.93397853 496.33882497 -58.93524551 501.45503235 C-58.93635164 506.14951042 -58.93275552 510.84396187 -58.92559699 515.53843439 C-58.92380448 517.22507467 -58.92363265 518.91171774 -58.92536428 520.59835809 C-58.93898058 535.5281966 -58.93336192 550.67593373 -56.10162354 565.38095093 C-55.92792236 566.29828003 -55.75422119 567.21560913 -55.57525635 568.16073608 C-50.8707546 591.71993502 -41.46372536 615.80874624 -21.03912354 629.69345093 C-19.63793059 630.61329881 -18.22187129 631.51106836 -16.78912354 632.38095093 C-16.23747339 632.72860662 -15.68582325 633.0762623 -15.11745644 633.43445301 C-11.92421263 634.73254858 -8.85484549 634.73352291 -5.45767212 634.78663635 C-4.71709824 634.80539294 -3.97652436 634.82414953 -3.21350884 634.84347451 C-0.72759534 634.90294206 1.75832797 634.94749128 4.24456787 634.99105835 C6.03400001 635.02856848 7.82342671 635.06633902 9.61284828 635.10435009 C32.6294644 635.56423274 55.65148475 635.58540297 78.67181396 635.61923218 C81.06268955 635.62329676 83.45356505 635.62741406 85.84444046 635.63158226 C97.04202728 635.65045817 108.23960805 635.66475046 119.43720758 635.67319423 C132.27503795 635.68304538 145.11269956 635.70964043 157.95047033 635.74969512 C167.95984422 635.77984096 177.96916934 635.7946597 187.97858775 635.79797524 C193.92522946 635.80031753 199.87168697 635.80917971 205.81827927 635.83443642 C211.38214913 635.85771016 216.94571282 635.8619532 222.50961876 635.85167503 C224.54373508 635.85118024 226.57786664 635.857484 228.61193657 635.87123108 C242.93069724 636.18543632 242.93069724 636.18543632 256.21087646 631.38095093 C257.54698975 630.65972046 257.54698975 630.65972046 258.91009521 629.92391968 C279.29342119 616.02801768 290.14487342 591.22419375 294.63934326 567.55844116 C295.23623041 564.17405687 295.77033716 560.78871601 296.21087646 557.38095093 C296.2990107 556.73897784 296.38714494 556.09700475 296.47794992 555.43557793 C297.51484525 546.72025123 297.35297899 537.97035637 297.34458923 529.20906067 C297.34645915 527.35638526 297.34876058 525.50371024 297.35145456 523.65103585 C297.35755668 518.57573705 297.35744083 513.50045476 297.35626018 508.42515314 C297.35605577 502.94505904 297.36157883 497.46497018 297.36631775 491.98487854 C297.37461643 481.25358441 297.37737225 470.52229576 297.37793013 459.79099869 C297.37840571 451.06474177 297.38046258 442.33848665 297.38363075 433.6122303 C297.3910035 412.88225407 297.39715579 392.15227903 297.39663219 371.42230129 C297.39661662 370.75980305 297.39660104 370.09730481 297.39658499 369.41473086 C297.39650188 366.05720731 297.39640284 362.69968376 297.39630028 359.34216022 C297.39628033 358.67539112 297.39626039 358.00862202 297.39623984 357.3216478 C297.3961994 355.97327808 297.3961576 354.62490835 297.39611445 353.27653863 C297.39550202 332.30930129 297.40300333 311.34208013 297.41668701 290.37484741 C297.43206884 266.79609159 297.44063929 243.21734352 297.43972379 219.63858181 C297.43939222 207.16267191 297.44212171 194.68678026 297.45290184 182.21087456 C297.46202312 171.58688705 297.46416877 160.96292606 297.45739242 150.33893632 C297.45413528 144.9232046 297.4540413 139.50752371 297.46274567 134.09179688 C297.47064743 129.12412338 297.46914194 124.15654074 297.46046153 119.18886936 C297.45893459 117.40152864 297.46071194 115.61418101 297.46632161 113.82684844 C297.55557658 83.34492552 292.19913708 50.40965421 272.69134521 25.85751343 C271.32335283 24.14556024 271.32335283 24.14556024 269.21087646 24.38095093 C268.88087646 23.39095093 268.55087646 22.40095093 268.21087646 21.38095093 C264.92337686 18.47032517 261.37998848 16.06091944 257.64837646 13.75595093 C256.7189624 13.1655603 255.78954834 12.57516968 254.83197021 11.96688843 C242.82517934 6.70825079 228.72983902 8.09735008 215.90008545 8.12216187 C213.54180799 8.1194486 211.18353137 8.11588579 208.82525635 8.11154175 C202.44731131 8.10245589 196.06943128 8.10594617 189.69148517 8.11229992 C185.70259023 8.11532925 181.71370456 8.11518078 177.72480965 8.1133194 C177.06074942 8.11301293 176.39668919 8.11270646 175.71250593 8.11239071 C174.36311037 8.1117512 173.01371483 8.11110278 171.66431928 8.11044553 C159.03913316 8.1047553 146.41397617 8.11127978 133.78879482 8.12204626 C122.97512843 8.13098265 112.16150498 8.12942647 101.34783936 8.12020874 C88.76346842 8.10948653 76.17912295 8.10530233 63.59474808 8.11143327 C62.25087456 8.11207031 60.90700104 8.11269905 59.56312752 8.1133194 C58.90206463 8.11362795 58.24100174 8.1139365 57.55990664 8.1142544 C52.91971177 8.11597534 48.27953382 8.11298058 43.63934135 8.10836029 C37.38562715 8.1025678 31.13199378 8.10661859 24.87828827 8.1181488 C22.58823086 8.12078509 20.29816661 8.12004799 18.00811195 8.11562347 C14.87272345 8.11012587 11.737591 8.11705306 8.60221863 8.12698364 C7.25598086 8.12029148 7.25598086 8.12029148 5.88254637 8.11346412 C-8.99052836 8.20429607 -20.83775363 12.03186964 -31.78912354 22.38095093 Z " fill="#000000" transform="translate(133.78912353515625,13.619049072265625)"/>
<path d="M0 0 C0.80824219 0.11085937 1.61648437 0.22171875 2.44921875 0.3359375 C3.37154297 0.47902344 3.37154297 0.47902344 4.3125 0.625 C1.77144304 15.53949075 -0.92274627 30.41865509 -3.77954102 45.27587891 C-4.38796178 48.44246077 -4.99197055 51.60986505 -5.59570312 54.77734375 C-5.98411743 56.80473686 -6.37277933 58.83208256 -6.76171875 60.859375 C-6.94087326 61.79980652 -7.12002777 62.74023804 -7.30461121 63.70916748 C-7.55541191 65.00893524 -7.55541191 65.00893524 -7.8112793 66.33496094 C-7.9568779 67.09387634 -8.1024765 67.85279175 -8.25248718 68.63470459 C-8.6875 70.625 -8.6875 70.625 -9.6875 73.625 C-13.3175 73.625 -16.9475 73.625 -20.6875 73.625 C-22.00830716 70.32298211 -22.97086902 67.83476952 -23.64892578 64.47729492 C-23.80894073 63.69686325 -23.96895569 62.91643158 -24.13381958 62.11235046 C-24.29848724 61.2850795 -24.46315491 60.45780853 -24.6328125 59.60546875 C-24.80755096 58.74689774 -24.98228943 57.88832672 -25.162323 57.0037384 C-25.7167956 54.27419801 -26.26473429 51.54339339 -26.8125 48.8125 C-27.18837102 46.95629287 -27.56466837 45.10017201 -27.94140625 43.24414062 C-28.86171227 38.70541161 -29.77616251 34.16553794 -30.6875 29.625 C-32.71497246 35.41394443 -34.40260305 41.17350539 -35.73046875 47.16015625 C-35.90379227 47.92428329 -36.07711578 48.68841034 -36.25569153 49.47569275 C-36.79973641 51.87868723 -37.33748094 54.28303835 -37.875 56.6875 C-38.24632591 58.33277689 -38.6180672 59.97796008 -38.99023438 61.62304688 C-39.8941185 65.62263316 -40.7923615 69.62344771 -41.6875 73.625 C-45.6475 73.625 -49.6075 73.625 -53.6875 73.625 C-54.01024902 71.95066895 -54.33299805 70.27633789 -54.66552734 68.55126953 C-55.73891279 62.98328797 -56.81262033 57.41536859 -57.88654137 51.84749031 C-58.53684726 48.47583582 -59.18702886 45.10415748 -59.83691406 41.73242188 C-60.58620534 37.84497815 -61.33605944 33.95764308 -62.0859375 30.0703125 C-62.3162265 28.87511993 -62.5465155 27.67992737 -62.78378296 26.44851685 C-63.00386017 25.30808929 -63.22393738 24.16766174 -63.45068359 22.99267578 C-63.65908875 21.91181702 -63.8674939 20.83095825 -64.08221436 19.71734619 C-64.8026281 16.03682162 -65.55801849 12.36401344 -66.32925415 8.69381714 C-66.79830434 5.98512124 -66.83173073 3.36538378 -66.6875 0.625 C-63.0575 0.625 -59.4275 0.625 -55.6875 0.625 C-55.48592285 1.78435059 -55.2843457 2.94370117 -55.07666016 4.13818359 C-54.32125257 8.4808525 -53.56418465 12.82323065 -52.80664062 17.16552734 C-52.48034827 19.03719444 -52.15449325 20.90893783 -51.82910156 22.78076172 C-51.35860117 25.48686061 -50.88647596 28.192672 -50.4140625 30.8984375 C-50.27126862 31.72177582 -50.12847473 32.54511414 -49.98135376 33.3934021 C-48.97222332 39.16063956 -47.83656633 44.87966836 -46.6875 50.625 C-43.0575 34.125 -39.4275 17.625 -35.6875 0.625 C-33.0475 0.625 -30.4075 0.625 -27.6875 0.625 C-24.422187 12.9561199 -21.73171868 25.40844345 -19.06225586 37.87890625 C-18.83845749 38.9172612 -18.83845749 38.9172612 -18.61013794 39.97659302 C-18.19807446 41.88873778 -17.78901461 43.80152909 -17.38012695 45.71435547 C-16.82422988 48.54154518 -16.82422988 48.54154518 -15.6875 50.625 C-15.03111346 46.71200131 -14.37621622 42.79875595 -13.72210693 38.88537598 C-13.3760677 36.81887613 -13.02820215 34.75268944 -12.68017578 32.68652344 C-11.66217992 26.62289077 -10.65740096 20.56059696 -9.79296875 14.47265625 C-9.66639893 13.59649658 -9.5398291 12.72033691 -9.40942383 11.81762695 C-9.1832614 10.22525883 -8.96772739 8.63133388 -8.7644043 7.03588867 C-8.4609375 4.921875 -8.4609375 4.921875 -7.6875 1.625 C-4.33422361 -0.61051759 -3.78006343 -0.54783528 0 0 Z " fill="#000000" transform="translate(230.6875,198.375)"/>
<path d="M0 0 C0 24.09 0 48.18 0 73 C-3.3 73 -6.6 73 -10 73 C-10.33 63.1 -10.66 53.2 -11 43 C-17.93 42.67 -24.86 42.34 -32 42 C-32 52.23 -32 62.46 -32 73 C-35.63 73 -39.26 73 -43 73 C-43 48.91 -43 24.82 -43 0 C-39.37 0 -35.74 0 -32 0 C-32 10.56 -32 21.12 -32 32 C-21.605 31.505 -21.605 31.505 -11 31 C-10.67 20.77 -10.34 10.54 -10 0 C-2 -1 -2 -1 0 0 Z " fill="#000000" transform="translate(331,199)"/>
<path d="M0 0 C4.15258823 1.75331503 6.4732156 4.3000657 9 8 C10.80413368 13.29014968 10.26304577 19.16287111 10.29516602 24.6796875 C10.30666292 26.05283939 10.32707894 27.42594739 10.35668945 28.79882812 C10.53100483 36.89329398 10.6463758 43.18420724 6 50 C2.55478742 52.91737886 -0.59862898 54.22399193 -5.125 54.4375 C-9.32477901 53.9633314 -11.99688968 53.00311032 -15 50 C-15.33 57.92 -15.66 65.84 -16 74 C-19.63 74 -23.26 74 -27 74 C-27 49.91 -27 25.82 -27 1 C-23.37 1 -19.74 1 -16 1 C-15.67 1.99 -15.34 2.98 -15 4 C-14.195625 3.34 -13.39125 2.68 -12.5625 2 C-8.53946586 -0.67884501 -4.68818278 -0.71190924 0 0 Z M-15 12 C-16.61511207 16.84533621 -16.26777743 21.80047872 -16.3125 26.875 C-16.34150391 27.96425781 -16.37050781 29.05351562 -16.40039062 30.17578125 C-16.50469662 36.4897709 -16.50469662 36.4897709 -14.09765625 42.1953125 C-11.40511992 44.56016336 -11.40511992 44.56016336 -8 45 C-4.76075361 43.8338713 -2.60839829 43.04121855 -0.8359375 40.0078125 C0.37234995 35.66023615 0.28904686 31.49038919 0.25 27 C0.25773437 26.11054688 0.26546875 25.22109375 0.2734375 24.3046875 C0.25660302 18.6651368 0.18582565 14.18582565 -4 10 C-9.88336903 9.49033587 -9.88336903 9.49033587 -15 12 Z " fill="#000000" transform="translate(266,219)"/>
<path d="M0 0 C4.81625428 3.52582328 9.0215466 7.89868639 10.5 13.8125 C11.11509727 20.2490536 10.67247703 25.14736245 7.5 30.8125 C5.4375 33.25 5.4375 33.25 3.5 34.8125 C2.84 34.8125 2.18 34.8125 1.5 34.8125 C1.5 35.4725 1.5 36.1325 1.5 36.8125 C-5.3834131 40.84181499 -12.71351289 40.47918057 -20.5 39.8125 C-23.21416513 39.08256996 -25.06388789 38.23851685 -27.5 36.8125 C-27.5 36.1525 -27.5 35.4925 -27.5 34.8125 C-28.36625 34.5340625 -28.36625 34.5340625 -29.25 34.25 C-32.66521826 32.068055 -34.28900525 29.59376932 -35.5 25.8125 C-36.20483623 19.80729529 -36.75904434 13.26361418 -33.875 7.75 C-25.43782125 -2.68545792 -12.40585881 -7.26024692 0 0 Z M-24.5 9.8125 C-26.91099918 14.15229852 -28.42744197 17.86614284 -27.5 22.8125 C-25.26453479 26.35943813 -22.71404951 29.07768056 -19.125 31.25 C-14.0996465 32.32686146 -10.08491563 32.3306455 -5.25 30.75 C-1.72646021 28.26750606 0.02043028 25.84391188 1.5 21.8125 C2.10736763 17.48500563 1.8304379 15.44889891 -0.1875 11.5625 C-3.26402419 7.90393069 -5.20530417 6.09670545 -10.0546875 5.49609375 C-15.97076911 5.24758626 -20.07156718 5.494778 -24.5 9.8125 Z " fill="#000000" transform="translate(260.5,30.1875)"/>
</svg>
