<?xml version="1.0" encoding="UTF-8"?>
<svg version="1.1" xmlns="http://www.w3.org/2000/svg" width="484" height="669">
<path d="M0 0 C1.02950095 -0.00218016 1.02950095 -0.00218016 2.07979989 -0.00440437 C4.40853767 -0.0080902 6.73721105 -0.00456608 9.06594849 -0.0011425 C10.74076814 -0.0022933 12.41558755 -0.00388055 14.09040642 -0.00586975 C18.71526221 -0.01006872 23.34009753 -0.00796983 27.96495342 -0.00488353 C32.94387137 -0.00263194 37.92278565 -0.00610783 42.90170288 -0.00886345 C52.66431911 -0.01332274 62.42692767 -0.01234397 72.1895442 -0.00945081 C80.12000561 -0.0071974 88.05046487 -0.00688398 95.98092651 -0.00797462 C97.67048519 -0.00820447 97.67048519 -0.00820447 99.39417636 -0.00843897 C101.6819911 -0.00875867 103.96980584 -0.00908289 106.25762057 -0.00941156 C127.73787163 -0.01226682 149.21811843 -0.00897861 170.69836879 -0.00361119 C189.15113837 0.00085689 207.60390167 0.00008097 226.05667114 -0.00452995 C247.4572135 -0.00987491 268.85775212 -0.01199212 290.25829506 -0.00891769 C292.53794988 -0.00859912 294.8176047 -0.00828475 297.09725952 -0.00797462 C298.21905259 -0.00782035 299.34084566 -0.00766607 300.49663246 -0.00750712 C308.42255039 -0.00664173 316.34846597 -0.00810532 324.27438354 -0.01045418 C333.92627208 -0.01325151 343.57815248 -0.01251535 353.23004007 -0.00717343 C358.15967412 -0.0045355 363.08929457 -0.00353289 368.01892853 -0.00682259 C372.52411345 -0.00978368 377.02927207 -0.00819589 381.53445458 -0.00284503 C383.17171269 -0.00172004 384.80897298 -0.00231382 386.4462297 -0.00472082 C388.65691425 -0.00772368 390.86750646 -0.00468153 393.07818604 0 C394.31059587 0.00016235 395.54300571 0.0003247 396.81276131 0.00049198 C399.53909302 0.12584114 399.53909302 0.12584114 400.53909302 1.12584114 C400.63576067 2.57498489 400.66281107 4.02883219 400.66214085 5.4811964 C400.66413189 6.42718765 400.66612294 7.3731789 400.66817433 8.34783655 C400.66526148 9.3993707 400.66234864 10.45090485 400.65934753 11.53430367 C400.66062917 13.19554934 400.66062917 13.19554934 400.6619367 14.89035553 C400.66359475 18.6323596 400.65806483 22.37431966 400.65261841 26.11631966 C400.65233658 28.78638498 400.65245006 31.45644754 400.65306091 34.12651253 C400.65358634 39.89090182 400.65043759 45.65527983 400.64482307 51.41966629 C400.6367106 59.7540943 400.63409311 68.08851683 400.63283508 76.42294835 C400.63064416 89.943626 400.623983 103.46429762 400.61453247 116.984972 C400.60535938 130.12234149 400.59828951 143.25970934 400.59402466 156.39708138 C400.59375666 157.2145567 400.59348866 158.03203202 400.59321254 158.87427932 C400.59113323 165.26707122 400.58917627 171.65986315 400.58725798 178.0526551 C400.57781709 209.4103893 400.55770049 240.76810845 400.53909302 272.12584114 C333.87909302 272.45584114 267.21909302 272.78584114 198.53909302 273.12584114 C198.57870346 308.90783105 198.57870346 308.90783105 198.62918091 344.68980598 C198.63369751 351.59971809 198.63369751 351.59971809 198.63453674 354.83131599 C198.63607549 357.09539677 198.63959901 359.3594767 198.64466858 361.62355232 C198.65195236 365.0466931 198.65300022 368.46978366 198.65261841 371.89293098 C198.65621652 372.90688627 198.65981462 373.92084156 198.66352177 374.96552277 C198.66214427 375.88349955 198.66076677 376.80147633 198.65934753 377.74727058 C198.66073022 378.95021043 198.66073022 378.95021043 198.66214085 380.17745209 C198.53909302 382.12584114 198.53909302 382.12584114 197.53909302 384.12584114 C198.34572388 384.09554817 199.15235474 384.0652552 199.98342896 384.03404427 C221.54269033 383.26088455 243.09973701 382.99064531 264.67149353 382.94417 C266.73126562 382.93832789 268.79098679 382.92861361 270.85073853 382.91783333 C274.74036132 382.89812089 278.62988642 382.89567482 282.51956177 382.89537239 C284.29682899 382.88465454 284.29682899 382.88465454 286.11000061 382.87372017 C287.19285843 382.87675652 288.27571625 382.87979286 289.39138794 382.88292122 C290.34124069 382.8814962 291.29109344 382.88007118 292.26972961 382.87860298 C294.53909302 383.12584114 294.53909302 383.12584114 296.53909302 385.12584114 C296.97659302 387.56334114 296.97659302 387.56334114 296.53909302 390.12584114 C291.92995655 394.20280488 286.62902439 393.49010763 280.83987427 393.38365364 C279.76019882 393.37662926 278.68052338 393.36960487 277.56813049 393.36236763 C275.22380469 393.34610368 272.8795172 393.32330643 270.53530884 393.29475594 C264.24639858 393.21978376 257.95726644 393.19647413 251.66799927 393.16880989 C250.35930878 393.16198692 249.05061829 393.15516396 247.70227051 393.14813423 C234.1827108 393.08625747 220.66908456 393.26096169 207.1517334 393.49614143 C204.58001406 393.54088254 202.00825524 393.58340956 199.4364624 393.62370491 C195.84035091 393.68039543 192.24442336 393.74365044 188.64846802 393.80943489 C187.04291298 393.83448853 187.04291298 393.83448853 185.40492249 393.86004829 C183.93171288 393.88998123 183.93171288 393.88998123 182.42874146 393.92051888 C181.5761676 393.93606316 180.72359375 393.95160744 179.84518433 393.96762276 C177.57594987 394.05273477 177.57594987 394.05273477 175.58117676 394.63058662 C173.00179974 395.25614771 170.63031553 395.25308073 167.97610474 395.25523567 C166.86170013 395.25838783 165.74729553 395.26153999 164.59912109 395.26478767 C163.4011087 395.26276344 162.20309631 395.26073921 160.96878052 395.25865364 C159.73620514 395.25961037 158.50362976 395.26056709 157.23370361 395.26155281 C153.96296421 395.26240731 150.69227239 395.25838424 147.42153931 395.25279427 C145.41301975 395.2508401 143.40454378 395.25279119 141.39602661 395.25621223 C137.54525712 395.26236892 133.69455265 395.26164726 129.84378052 395.25865364 C128.04068924 395.26168999 128.04068924 395.26168999 126.20117188 395.26478767 C125.09307159 395.26163551 123.98497131 395.25848335 122.84329224 395.25523567 C121.86496429 395.25444008 120.88663635 395.25364449 119.87866211 395.25282478 C117.53909302 395.12584114 117.53909302 395.12584114 115.53909302 394.12584114 C115.35159302 390.75084114 115.35159302 390.75084114 115.53909302 387.12584114 C119.20227897 384.68371717 121.02703852 384.85340278 125.39724731 384.80699348 C126.0901889 384.79694786 126.78313049 384.78690224 127.49707031 384.7765522 C129.78580908 384.74567954 132.07443067 384.72867403 134.36331177 384.71177864 C135.9508719 384.69307024 137.53842206 384.67349707 139.1259613 384.65309334 C143.30324425 384.60173131 147.48055944 384.56212748 151.6579895 384.52495003 C155.92117315 384.48493583 160.18422216 384.43383172 164.44729614 384.38365364 C172.81113652 384.28684618 181.17504343 384.20245693 189.53909302 384.12584114 C189.20909302 383.46584114 188.87909302 382.80584114 188.53909302 382.12584114 C188.44700531 380.65599927 188.41716114 379.18202952 188.4188385 377.70930672 C188.41677226 376.31974675 188.41677226 376.31974675 188.41466427 374.90211487 C188.41826238 373.87879122 188.42186049 372.85546757 188.42556763 371.80113411 C188.42544709 370.71055262 188.42532656 369.61997112 188.42520237 368.49634171 C188.4259509 364.95355019 188.43357644 361.41081079 188.44143677 357.86802864 C188.44290637 355.68581861 188.44392697 353.50360823 188.44448853 351.32139778 C188.44973926 343.2145402 188.46370037 335.10769017 188.47659302 327.00084114 C188.49721802 308.89209114 188.51784302 290.78334114 188.53909302 272.12584114 C123.85909302 272.12584114 59.17909302 272.12584114 -7.46090698 272.12584114 C-7.50123833 204.15855544 -7.50123833 204.15855544 -7.50973511 175.84263802 C-7.51169312 169.36078578 -7.51371364 162.87893356 -7.51583862 156.39708138 C-7.51610237 155.58463374 -7.51636612 154.77218611 -7.51663786 153.93511885 C-7.52099277 140.80131971 -7.52887966 127.66752492 -7.53805978 114.53372837 C-7.54739574 101.06510601 -7.55296247 87.59648595 -7.55499548 74.12786049 C-7.55637082 65.81019934 -7.56072205 57.4925505 -7.56882345 49.17489313 C-7.5740902 43.47903707 -7.57571144 37.78318742 -7.57440836 32.0873291 C-7.57376487 28.79613747 -7.57532218 25.50497211 -7.58011246 22.21378326 C-7.58504233 18.65393912 -7.58390789 15.09414889 -7.5811615 11.53430367 C-7.58407434 10.48276952 -7.58698718 9.43123537 -7.58998829 8.34783655 C-7.58799724 7.4018453 -7.58600619 6.45585405 -7.58395481 5.4811964 C-7.58433453 4.65834245 -7.58471425 3.83548849 -7.58510548 2.98769957 C-7.29935166 -1.29603315 -3.47271583 0.00045748 0 0 Z M2.53909302 9.12584114 C2.53909302 92.94584114 2.53909302 176.76584114 2.53909302 263.12584114 C130.57909302 263.12584114 258.61909302 263.12584114 390.53909302 263.12584114 C390.53909302 179.30584114 390.53909302 95.48584114 390.53909302 9.12584114 C262.49909302 9.12584114 134.45909302 9.12584114 2.53909302 9.12584114 Z " fill="#000000" transform="translate(47.460906982421875,29.87415885925293)"/>
<path d="M0 0 C1.1448568 0.00037972 2.28971359 0.00075944 3.46926302 0.00115067 C4.7844942 -0.00084038 6.09972538 -0.00283143 7.45481205 -0.00488281 C8.93357451 -0.00202921 10.4123368 0.0009164 11.89109892 0.00394398 C13.44701189 0.00350841 15.00292479 0.00263378 16.55883729 0.00135481 C20.85498055 -0.00089304 25.15109912 0.00313507 29.44723922 0.00813287 C34.07235007 0.01243306 38.69745941 0.01099126 43.32257169 0.0102306 C51.34273766 0.00970509 59.36289552 0.01285471 67.38305944 0.01846844 C78.97901079 0.02657978 90.5749582 0.02919828 102.17091208 0.03045643 C120.9825047 0.03264753 139.794093 0.03930917 158.60568327 0.04875904 C176.88432888 0.05793167 195.16297332 0.06501323 213.44162077 0.06926686 C215.13037268 0.06966094 215.13037268 0.06966094 216.8532408 0.07006299 C222.50096502 0.07136798 228.14868925 0.0726317 233.79641348 0.07387489 C280.68376747 0.0842493 327.57111675 0.10186917 374.45846647 0.1241985 C374.62366577 2.84571814 374.78748988 5.56730899 374.95052999 8.28895813 C375.02047699 9.43777386 375.02047699 9.43777386 375.09183705 10.60979798 C375.4203971 16.11941072 375.60245167 21.60730541 375.587861 27.12737232 C375.58959066 27.99923302 375.59132032 28.87109371 375.5931024 29.76937443 C375.59739577 32.62334648 375.59452662 35.4772571 375.59127897 38.33122975 C375.59229967 40.41288988 375.59364199 42.49454987 375.59527677 44.5762096 C375.59797762 50.19379418 375.59349608 55.81135106 375.58703703 61.42893177 C375.58345356 64.94938448 375.58184345 68.46983306 375.58078092 71.99028736 C375.57008929 100.68024588 375.45665398 129.36879189 375.23190397 158.05779225 C375.22231279 159.28530768 375.21272161 160.51282311 375.20283979 161.77753597 C374.99222815 188.2267625 374.71650347 214.67540631 374.45846647 241.1241985 C310.76846647 241.1241985 247.07846647 241.1241985 181.45846647 241.1241985 C181.12846647 242.7741985 180.79846647 244.4241985 180.45846647 246.1241985 C175.83846647 246.1241985 171.21846647 246.1241985 166.45846647 246.1241985 C166.12846647 244.4741985 165.79846647 242.8241985 165.45846647 241.1241985 C164.59356124 241.12512029 163.728656 241.12604208 162.83754152 241.12699181 C141.82397629 241.14904498 120.81041305 241.16560904 99.7968387 241.17601067 C89.63497147 241.18117409 79.47311195 241.18821767 69.31124967 241.19963795 C60.45753021 241.20958338 51.60381633 241.21605159 42.75009143 241.21828699 C38.05909112 241.21959434 33.36810678 241.22268171 28.67711157 241.22992855 C24.26707395 241.23668654 19.85705896 241.23881591 15.44701666 241.23730618 C13.82359024 241.23758261 12.20016311 241.23958904 10.57674116 241.24340397 C8.37001597 241.24833778 6.16337764 241.24719796 3.95665067 241.24445301 C2.7186827 241.24537481 1.48071472 241.2462966 0.20523256 241.24724633 C-2.54153353 241.1241985 -2.54153353 241.1241985 -3.54153353 240.1241985 C-3.64179371 237.05458995 -3.67591026 234.00740122 -3.66851717 230.93730885 C-3.67007716 229.96119097 -3.67163715 228.9850731 -3.67324442 227.9793759 C-3.67725896 224.68193198 -3.67406302 221.38453345 -3.67092806 218.08708912 C-3.6722819 215.733914 -3.67406173 213.38073909 -3.67623812 211.02756459 C-3.68081452 204.61659883 -3.67902205 198.20564909 -3.67585903 191.79468304 C-3.67319227 185.77935665 -3.67531787 179.76403056 -3.67678623 173.74870408 C-3.67964112 161.10861748 -3.67635385 148.46853812 -3.67098586 135.82845271 C-3.66651781 124.97113908 -3.66729374 114.11383615 -3.67190462 103.25652272 C-3.67725022 90.66317766 -3.67936643 78.06983897 -3.67629236 65.47649294 C-3.67470816 58.80472254 -3.67453716 52.13295856 -3.67782885 45.46118885 C-3.68070628 39.19043767 -3.67873423 32.91970677 -3.67293459 26.64895779 C-3.6716063 24.34019526 -3.67200226 22.03143105 -3.67419726 19.72266918 C-3.67690608 16.58545203 -3.67353093 13.44830102 -3.66851717 10.31108814 C-3.67074789 9.38474646 -3.67297862 8.45840478 -3.67527694 7.50399214 C-3.65236898 0.17848229 -3.65236898 0.17848229 0 0 Z M6.45846647 9.1241985 C6.45846647 82.3841985 6.45846647 155.6441985 6.45846647 231.1241985 C124.92846647 231.1241985 243.39846647 231.1241985 365.45846647 231.1241985 C365.45846647 157.8641985 365.45846647 84.6041985 365.45846647 9.1241985 C246.98846647 9.1241985 128.51846647 9.1241985 6.45846647 9.1241985 Z " fill="#000000" transform="translate(60.54153352975845,44.875801503658295)"/>
<path d="M0 0 C3.28175318 2.52968474 4.69243777 4.07731331 6 8 C6.08106686 9.55421729 6.10756898 11.11167027 6.09765625 12.66796875 C6.09443359 13.56064453 6.09121094 14.45332031 6.08789062 15.37304688 C6.07951172 16.30181641 6.07113281 17.23058594 6.0625 18.1875 C6.05798828 19.12787109 6.05347656 20.06824219 6.04882812 21.03710938 C6.03704626 23.35813712 6.02059558 25.67903644 6 28 C6.66 28.33 7.32 28.66 8 29 C7.67 30.65 7.34 32.3 7 34 C5.576875 33.7215625 5.576875 33.7215625 4.125 33.4375 C1.10131207 32.71313368 1.10131207 32.71313368 -1 34 C-5.97067782 34.3751455 -9.05151502 34.15878799 -13 31 C-15.72156307 26.54902355 -15.36767857 22.19874865 -15.375 17.125 C-15.39949219 16.23941406 -15.42398438 15.35382813 -15.44921875 14.44140625 C-15.47511917 8.64834584 -14.82402503 5.42108469 -11 1 C-7.52468913 -0.73765543 -3.7911999 -0.59585352 0 0 Z M-9 7 C-9.44716639 8.99361474 -9.44716639 8.99361474 -9.36328125 11.28125 C-9.36263672 12.12300781 -9.36199219 12.96476562 -9.36132812 13.83203125 C-9.34521484 14.71246094 -9.32910156 15.59289062 -9.3125 16.5 C-9.31572266 17.38042969 -9.31894531 18.26085937 -9.32226562 19.16796875 C-9.55849396 24.10248946 -9.55849396 24.10248946 -7 28 C-4.89179203 27.6814823 -4.89179203 27.6814823 -3 27 C-3.66 27 -4.32 27 -5 27 C-4.34 25.68 -3.68 24.36 -3 23 C-2.01 23 -1.02 23 0 23 C0.08074203 20.37438891 0.1403623 17.75124324 0.1875 15.125 C0.21263672 14.37863281 0.23777344 13.63226563 0.26367188 12.86328125 C0.3298764 10.43778172 0.3298764 10.43778172 0 7 C-4.01009099 4.32660601 -4.98990901 4.32660601 -9 7 Z " fill="#000000" transform="translate(156,88)"/>
<path d="M0 0 C1.65 0.33 3.3 0.66 5 1 C5.13277344 1.63808594 5.26554688 2.27617188 5.40234375 2.93359375 C5.57894531 3.75988281 5.75554687 4.58617188 5.9375 5.4375 C6.11152344 6.26121094 6.28554687 7.08492188 6.46484375 7.93359375 C6.80752994 9.97661204 6.80752994 9.97661204 8 11 C8.17015625 10.28972656 8.3403125 9.57945313 8.515625 8.84765625 C8.75796875 7.92855469 9.0003125 7.00945312 9.25 6.0625 C9.48203125 5.14597656 9.7140625 4.22945313 9.953125 3.28515625 C11 1 11 1 13.109375 0.18359375 C13.73328125 0.12300781 14.3571875 0.06242187 15 0 C16.65362053 3.73862033 18.00424757 7.01699027 19 11 C19.99 7.7 20.98 4.4 22 1 C23.65 0.67 25.3 0.34 27 0 C28.15294668 3.45884004 27.79943888 4.47127724 26.78515625 7.88671875 C26.51123047 8.82451172 26.23730469 9.76230469 25.95507812 10.72851562 C25.66052734 11.70498047 25.36597656 12.68144531 25.0625 13.6875 C24.77181641 14.67556641 24.48113281 15.66363281 24.18164062 16.68164062 C23.46206783 19.1234696 22.73459007 21.56265482 22 24 C20.68 24.33 19.36 24.66 18 25 C16.92578125 22.4609375 16.92578125 22.4609375 15.8515625 19.921875 C14.96193599 17.91409408 13.99581175 15.95698656 13 14 C12.82984375 14.71027344 12.6596875 15.42054687 12.484375 16.15234375 C12.24203125 17.07144531 11.9996875 17.99054688 11.75 18.9375 C11.40195313 20.31228516 11.40195313 20.31228516 11.046875 21.71484375 C10 24 10 24 7.890625 24.81640625 C7.26671875 24.87699219 6.6428125 24.93757813 6 25 C-1.75812274 8.70794224 -1.75812274 8.70794224 -0.609375 1.57421875 C-0.30773437 0.79498047 -0.30773437 0.79498047 0 0 Z " fill="#000000" transform="translate(166,97)"/>
<path d="M0 0 C14 0 14 0 18 2 C20.70123692 6.05614305 20.55365637 10.29392084 20 15 C18.6875 18 18.6875 18 17 20 C14.11788698 20.96070434 12.30149956 21.10581883 9.3125 21.0625 C8.10013672 21.04896484 8.10013672 21.04896484 6.86328125 21.03515625 C6.24839844 21.02355469 5.63351562 21.01195313 5 21 C5.26103516 21.84304687 5.26103516 21.84304687 5.52734375 22.703125 C6.05053346 25.24556755 5.90204838 27.18452337 5.5625 29.75 C5.46066406 30.54921875 5.35882813 31.3484375 5.25390625 32.171875 C5.17011719 32.77515625 5.08632813 33.3784375 5 34 C3.35 33.67 1.7 33.34 0 33 C0 22.11 0 11.22 0 0 Z M5 6 C4.9020943 7.49738124 4.87025136 8.99942892 4.875 10.5 C4.87242187 11.3146875 4.86984375 12.129375 4.8671875 12.96875 C4.7754822 14.99530377 4.7754822 14.99530377 6 16 C10.14276875 16.24733137 10.14276875 16.24733137 14 15 C14.04125 13.72125 14.0825 12.4425 14.125 11.125 C14.15980469 10.04605469 14.15980469 10.04605469 14.1953125 8.9453125 C14.18331689 6.76136355 14.18331689 6.76136355 12 5 C8.19988141 4.48207372 8.19988141 4.48207372 5 6 Z " fill="#000000" transform="translate(278,88)"/>
<path d="M0 0 C2.9375 1.625 2.9375 1.625 5 4 C5.8125 7.25 5.8125 7.25 6 10 C4.02 10 2.04 10 0 10 C-0.66 8.68 -1.32 7.36 -2 6 C-3.65 6.33 -5.3 6.66 -7 7 C-7 13.27 -7 19.54 -7 26 C-5.02 26.66 -3.04 27.32 -1 28 C-0.34 26.35 0.32 24.7 1 23 C2.65 23 4.3 23 6 23 C5.67641073 26.55948201 5.3899006 28.53463476 3.0625 31.3125 C-0.38684022 34.13468745 -2.56325077 34.34798033 -7 34 C-9.96534831 32.71950869 -11.54371175 31.82195479 -13.12109375 28.98046875 C-14.35494864 24.79632973 -14.32911424 20.83963899 -14.3125 16.5 C-14.32861328 15.65824219 -14.34472656 14.81648438 -14.36132812 13.94921875 C-14.36510257 9.15566981 -14.16601556 5.8555693 -11 2 C-7.29916667 -0.46722222 -4.29337257 -0.66953179 0 0 Z " fill="#000000" transform="translate(315,88)"/>
<path d="M0 0 C2.4375 1.375 2.4375 1.375 4 4 C4.66667209 7.32806941 5.03092878 10.60402034 5 14 C4 15 4 15 1.49609375 15.09765625 C-0.01791016 15.08025391 -0.01791016 15.08025391 -1.5625 15.0625 C-2.57441406 15.05347656 -3.58632812 15.04445313 -4.62890625 15.03515625 C-5.80259766 15.01775391 -5.80259766 15.01775391 -7 15 C-6.67 15.99 -6.34 16.98 -6 18 C-4.72125 17.814375 -3.4425 17.62875 -2.125 17.4375 C1.75 16.875 1.75 16.875 4 18 C3.63802104 20.62434747 3.17343943 21.82013689 1.3125 23.75 C-1.75114795 25.40602592 -3.55734817 25.4918074 -7 25 C-9.69990662 23.20006226 -11.5418865 21.916227 -13 19 C-13.14901491 16.89946284 -13.22138453 14.79312175 -13.25 12.6875 C-13.27578125 11.55699219 -13.3015625 10.42648438 -13.328125 9.26171875 C-12.9685426 5.68729849 -12.14022123 3.85189674 -10 1 C-6.78682281 -0.60658859 -3.48506622 -0.46237512 0 0 Z M-6 5 C-6.33 6.65 -6.66 8.3 -7 10 C-5.02 10 -3.04 10 -1 10 C-1.33 8.68 -1.66 7.36 -2 6 C-3.32 5.67 -4.64 5.34 -6 5 Z " fill="#000000" transform="translate(209,97)"/>
<path d="M0 0 C1.65 0 3.3 0 5 0 C6.32 3.63 7.64 7.26 9 11 C10.29185118 8.41629764 11.5039024 5.89986704 12.625 3.25 C13.07875 2.1775 13.5325 1.105 14 0 C15.65 0.33 17.3 0.66 19 1 C18.33440359 3.45675421 17.66515986 5.9124407 16.9921875 8.3671875 C16.24017551 11.12061724 15.49681481 13.87589519 14.7578125 16.6328125 C14.31791653 18.2552648 13.87781209 19.87766058 13.4375 21.5 C13.22778564 22.28938965 13.01807129 23.0787793 12.80200195 23.89208984 C12.59792725 24.6392627 12.39385254 25.38643555 12.18359375 26.15625 C12.00368896 26.82462891 11.82378418 27.49300781 11.63842773 28.18164062 C11 30 11 30 9 33 C4.625 34.3125 4.625 34.3125 2 33 C2 31.68 2 30.36 2 29 C3.32 28.67 4.64 28.34 6 28 C5.64849253 21.32135798 3.99569471 15.48472978 1.7277832 9.23022461 C0.53714871 5.89462363 0 3.60218226 0 0 Z " fill="#000000" transform="translate(246,97)"/>
<path d="M0 0 C1.32 0 2.64 0 4 0 C4.33 2.31 4.66 4.62 5 7 C5.99 7.33 6.98 7.66 8 8 C8 9.32 8 10.64 8 12 C7.01 12 6.02 12 5 12 C5 16.62 5 21.24 5 26 C5.99 26.33 6.98 26.66 8 27 C7.67 28.65 7.34 30.3 7 32 C4.125 31.6875 4.125 31.6875 1 31 C-1.52775351 27.20836973 -1.22443035 24.19125969 -1.125 19.8125 C-1.11597656 19.06291016 -1.10695312 18.31332031 -1.09765625 17.54101562 C-1.07412578 15.69387346 -1.03825561 13.84689588 -1 12 C-1.66 12 -2.32 12 -3 12 C-3 10.35 -3 8.7 -3 7 C-2.34 7 -1.68 7 -1 7 C-1.020625 6.030625 -1.04125 5.06125 -1.0625 4.0625 C-1 1 -1 1 0 0 Z " fill="#000000" transform="translate(236,90)"/>
<path d="M0 0 C0.845625 0.185625 1.69125 0.37125 2.5625 0.5625 C6.2773282 1.03529632 9.32974273 0.66064631 13 0 C13 1.65 13 3.3 13 5 C8.25 6 8.25 6 6 6 C5.67 11.94 5.34 17.88 5 24 C3.35 24.33 1.7 24.66 0 25 C-1.64889766 23.35110234 -1.12998381 21.42654616 -1.1328125 19.16015625 C-1.13410156 18.17982422 -1.13539063 17.19949219 -1.13671875 16.18945312 C-1.13285156 15.15755859 -1.12898437 14.12566406 -1.125 13.0625 C-1.12886719 12.03447266 -1.13273438 11.00644531 -1.13671875 9.94726562 C-1.13542969 8.96564453 -1.13414062 7.98402344 -1.1328125 6.97265625 C-1.13168457 6.06781494 -1.13055664 5.16297363 -1.12939453 4.23071289 C-1 2 -1 2 0 0 Z " fill="#020202" transform="translate(218,97)"/>
<path d="M0 0 C1.93166016 0.01740234 1.93166016 0.01740234 3.90234375 0.03515625 C5.19269531 0.04417969 6.48304688 0.05320312 7.8125 0.0625 C8.81152344 0.07410156 9.81054688 0.08570313 10.83984375 0.09765625 C11.16984375 1.41765625 11.49984375 2.73765625 11.83984375 4.09765625 C8.554649 5.19272117 6.1032096 5.19726233 2.65234375 5.16015625 C1.02232422 5.14662109 1.02232422 5.14662109 -0.640625 5.1328125 C-1.47207031 5.12121094 -2.30351562 5.10960937 -3.16015625 5.09765625 C-3.72265625 3.16015625 -3.72265625 3.16015625 -4.16015625 1.09765625 C-3.16015625 0.09765625 -3.16015625 0.09765625 0 0 Z " fill="#393939" transform="translate(230.16015625,285.90234375)"/>
<path d="M0 0 C1.65 0 3.3 0 5 0 C5.33 1.32 5.66 2.64 6 4 C1.25 5.125 1.25 5.125 -1 4 C-0.67 2.68 -0.34 1.36 0 0 Z " fill="#424242" transform="translate(227,286)"/>
</svg>
