<?xml version="1.0" standalone="no"?>
<!DOCTYPE svg PUBLIC "-//W3C//DTD SVG 20010904//EN"
 "http://www.w3.org/TR/2001/REC-SVG-20010904/DTD/svg10.dtd">
<svg version="1.0" xmlns="http://www.w3.org/2000/svg"
 width="948.000000pt" height="639.000000pt" viewBox="0 0 948.000000 639.000000"
 preserveAspectRatio="xMidYMid meet">

<g transform="translate(0.000000,639.000000) scale(0.100000,-0.100000)"
fill="#000000" stroke="none">
<path d="M1408 4939 c-18 -10 -25 -39 -10 -39 18 0 62 26 59 35 -5 14 -29 16
-49 4z"/>
<path d="M1555 3768 c3 -13 41 -210 85 -438 43 -228 82 -430 86 -447 l7 -33
67 0 67 0 69 310 c38 170 72 306 75 302 3 -4 34 -143 69 -309 l64 -303 67 0
c61 0 67 2 72 23 3 12 42 213 86 447 45 234 84 435 86 448 5 21 3 22 -59 22
-53 0 -66 -3 -70 -17 -3 -10 -31 -172 -63 -361 -31 -189 -58 -340 -60 -335 -1
4 -34 159 -73 343 -39 184 -74 343 -76 353 -4 13 -16 17 -50 17 -24 0 -44 -2
-44 -4 0 -10 -150 -700 -153 -702 -1 -2 -30 155 -63 349 l-59 352 -68 3 c-66
3 -67 2 -62 -20z"/>
<path d="M2560 3715 c0 -65 0 -65 29 -65 16 0 43 3 60 6 30 6 31 7 31 65 l0
59 -60 0 -60 0 0 -65z"/>
<path d="M4780 3279 l0 -471 198 4 c181 3 200 5 239 25 50 27 87 73 102 128
14 51 14 149 0 198 -13 46 -59 100 -100 117 l-31 13 35 19 c70 36 104 121 93
231 -12 111 -66 175 -167 196 -27 6 -122 11 -209 11 l-160 0 0 -471z m358 331
c18 -11 37 -32 42 -46 16 -40 12 -116 -8 -154 -22 -44 -59 -57 -174 -59 l-88
-2 0 140 0 141 98 0 c79 0 103 -4 130 -20z m24 -409 c31 -28 33 -34 36 -109 4
-90 -4 -114 -51 -142 -26 -16 -51 -20 -134 -20 l-103 0 0 150 0 150 110 0
c107 0 110 -1 142 -29z"/>
<path d="M5480 3343 c0 -381 2 -411 20 -450 26 -58 69 -83 143 -83 l57 0 0 60
0 60 -33 0 c-18 0 -38 5 -45 12 -9 9 -12 114 -12 410 l0 398 -65 0 -65 0 0
-407z"/>
<path d="M3514 3708 c-3 -4 -4 -47 -3 -96 l2 -87 -31 -3 c-32 -3 -32 -3 -32
-63 0 -58 0 -59 29 -59 l28 0 7 -222 c5 -151 12 -232 21 -255 21 -49 68 -73
143 -73 l62 0 0 60 0 60 -40 0 c-34 0 -42 4 -50 26 -6 14 -10 111 -10 215 l0
189 50 0 50 0 0 60 0 60 -50 0 -50 0 0 98 0 97 -60 1 c-34 1 -63 -3 -66 -8z"/>
<path d="M3800 3205 l0 -415 385 0 385 0 0 415 0 415 -385 0 -385 0 0 -415z
m690 0 l0 -335 -305 0 -305 0 0 335 0 335 305 0 305 0 0 -335z"/>
<path d="M3940 3185 l0 -235 250 0 250 0 0 235 0 235 -250 0 -250 0 0 -235z
m420 0 l0 -155 -170 0 -170 0 0 155 0 155 170 0 170 0 0 -155z"/>
<path d="M6065 3527 c-133 -44 -228 -137 -270 -265 -26 -81 -18 -200 18 -275
40 -80 112 -151 194 -190 64 -30 75 -32 178 -32 103 0 114 2 177 32 83 39 154
108 194 188 26 55 29 69 29 165 0 95 -3 110 -28 163 -40 80 -112 151 -194 190
-59 27 -80 32 -163 34 -59 2 -110 -2 -135 -10z m242 -88 c78 -29 163 -114 188
-189 62 -186 -59 -377 -257 -408 -115 -17 -223 21 -301 108 -53 59 -77 121
-77 200 0 83 25 143 84 206 93 99 232 131 363 83z"/>
<path d="M6110 3383 c-8 -3 -34 -19 -57 -36 -127 -90 -124 -298 5 -391 41 -29
50 -31 125 -31 76 0 85 2 129 32 31 22 54 50 72 85 55 109 23 244 -72 311 -41
27 -57 32 -117 34 -38 1 -77 0 -85 -4z m150 -96 c142 -95 55 -322 -108 -286
-65 14 -112 79 -112 154 0 65 39 129 90 148 37 13 98 6 130 -16z"/>
<path d="M3064 3511 c-22 -10 -50 -31 -62 -47 l-21 -29 -1 43 0 42 -65 0 -65
0 0 -335 0 -335 65 0 64 0 3 250 3 250 28 27 c23 23 36 28 77 28 41 0 54 -5
77 -28 l28 -27 3 -250 3 -250 65 0 66 0 -4 268 c-3 263 -3 268 -28 317 -45 86
-144 118 -236 76z"/>
<path d="M2560 3185 l0 -335 60 0 59 0 3 335 3 335 -62 0 -63 0 0 -335z"/>
<path d="M6629 3463 c5 -10 48 -83 95 -163 47 -80 86 -149 86 -155 0 -5 -45
-82 -100 -170 l-99 -160 61 -3 c33 -2 66 -1 73 1 6 3 35 47 65 98 29 52 58
100 63 107 7 9 27 -17 72 -95 l63 -108 72 -3 c56 -2 70 0 64 10 -4 7 -50 82
-102 166 -81 131 -93 156 -85 175 6 12 49 87 97 166 47 79 86 145 86 147 0 2
-31 4 -69 4 l-70 0 -58 -109 c-31 -61 -60 -108 -62 -105 -3 3 -30 51 -61 107
l-55 102 -73 3 c-68 3 -72 2 -63 -15z"/>
</g>
</svg>
