<?xml version="1.0" standalone="no"?>
<!DOCTYPE svg PUBLIC "-//W3C//DTD SVG 20010904//EN"
 "http://www.w3.org/TR/2001/REC-SVG-20010904/DTD/svg10.dtd">
<svg version="1.0" xmlns="http://www.w3.org/2000/svg"
 width="784.000000pt" height="1168.000000pt" viewBox="0 0 784.000000 1168.000000"
 preserveAspectRatio="xMidYMid meet">

<g transform="translate(0.000000,1168.000000) scale(0.100000,-0.100000)"
fill="#000000" stroke="none">
<path d="M3450 9468 c-3 -92 1 -2409 5 -2798 11 -1230 16 -2420 9 -2420 -4 0
-42 33 -83 73 -42 40 -184 176 -316 302 -132 127 -303 291 -380 365 -77 74
-196 189 -265 255 -114 110 -219 211 -523 505 l-108 105 -62 -65 c-34 -36
-157 -164 -272 -285 -116 -121 -231 -242 -255 -268 l-43 -48 60 -57 c34 -31
141 -136 239 -232 162 -159 445 -431 754 -725 64 -61 219 -209 346 -330 126
-121 346 -330 489 -465 240 -227 507 -479 783 -742 62 -60 118 -108 124 -108
21 0 2718 2694 2718 2715 0 10 -576 578 -625 616 -22 18 -26 13 -815 -769
-436 -433 -796 -788 -800 -790 -4 -2 -11 5 -14 15 -4 10 -9 1098 -12 2418 -2
1320 -7 2478 -10 2573 l-6 172 -469 0 c-368 0 -469 -3 -469 -12z"/>
</g>
</svg>
