<?xml version="1.0" standalone="no"?>
<!DOCTYPE svg PUBLIC "-//W3C//DTD SVG 20010904//EN"
 "http://www.w3.org/TR/2001/REC-SVG-20010904/DTD/svg10.dtd">
<svg version="1.0" xmlns="http://www.w3.org/2000/svg"
 width="394.000000pt" height="374.000000pt" viewBox="0 0 394.000000 374.000000"
 preserveAspectRatio="xMidYMid meet">

<g transform="translate(0.000000,374.000000) scale(0.100000,-0.100000)"
fill="#000000" stroke="none">
<path d="M1715 3575 c-283 -59 -507 -184 -725 -404 -228 -229 -378 -496 -456
-813 -70 -280 -73 -611 -9 -894 57 -252 189 -527 346 -720 34 -42 59 -82 61
-100 2 -24 9 -30 34 -34 19 -3 57 -29 100 -68 188 -168 445 -294 688 -337 115
-20 346 -20 460 0 495 86 929 456 1139 970 96 236 136 447 136 720 0 305 -51
541 -175 804 -89 187 -198 344 -329 471 -31 30 -61 65 -66 78 -5 12 -17 22
-28 22 -10 0 -25 8 -32 17 -21 25 -185 130 -272 175 -104 52 -260 103 -376
122 -144 24 -359 20 -496 -9z m491 -70 c175 -31 348 -103 515 -216 48 -32 90
-62 93 -67 3 -5 -180 -258 -405 -563 -226 -305 -417 -562 -424 -572 -11 -16
-55 27 -421 410 -225 235 -442 463 -484 507 l-75 78 80 75 c186 175 437 305
671 347 108 20 340 20 450 1z m824 -500 c195 -237 326 -549 370 -878 14 -111
12 -386 -4 -492 -39 -255 -139 -527 -258 -703 l-33 -49 -535 560 c-294 308
-536 563 -537 566 -1 3 119 170 268 371 149 201 341 459 426 574 l155 208 45
-43 c25 -24 71 -75 103 -114z m-1595 -490 c241 -253 449 -472 462 -486 l25
-27 -466 -628 c-257 -346 -470 -629 -475 -629 -5 0 -28 25 -53 55 -149 184
-268 432 -324 675 -59 257 -59 583 1 840 54 233 178 496 313 663 l35 43 22
-23 c12 -13 219 -230 460 -483z m1080 -1130 c292 -306 531 -562 533 -570 5
-22 -221 -243 -313 -307 -158 -110 -352 -192 -529 -223 -113 -19 -328 -19
-439 0 -237 41 -481 162 -661 327 l-68 63 468 632 c258 348 471 633 474 633 3
0 244 -250 535 -555z"/>
</g>
</svg>
