<?xml version="1.0" standalone="no"?>
<!DOCTYPE svg PUBLIC "-//W3C//DTD SVG 20010904//EN"
 "http://www.w3.org/TR/2001/REC-SVG-20010904/DTD/svg10.dtd">
<svg version="1.0" xmlns="http://www.w3.org/2000/svg"
 width="1168.000000pt" height="784.000000pt" viewBox="0 0 1168.000000 784.000000"
 preserveAspectRatio="xMidYMid meet">

<g transform="translate(0.000000,784.000000) scale(0.100000,-0.100000)"
fill="#000000" stroke="none">
<path d="M7145 5435 l0 -515 -550 0 c-302 0 -1427 -1 -2500 -3 l-1950 -2 0
-998 0 -997 2500 -3 2500 -2 0 -517 c0 -285 1 -518 3 -518 2 0 74 60 160 133
85 72 204 173 262 222 59 50 207 176 330 280 122 105 239 204 259 220 20 17
99 84 176 150 76 66 156 134 176 150 20 17 152 129 294 250 142 121 291 247
331 280 187 153 403 341 403 351 1 11 -49 55 -434 379 -143 121 -350 296 -460
390 -110 94 -323 274 -474 400 -151 127 -441 373 -645 547 -204 175 -373 318
-376 318 -3 0 -5 -232 -5 -515z"/>
</g>
</svg>
