<?xml version="1.0" standalone="no"?>
<!DOCTYPE svg PUBLIC "-//W3C//DTD SVG 20010904//EN"
 "http://www.w3.org/TR/2001/REC-SVG-20010904/DTD/svg10.dtd">
<svg version="1.0" xmlns="http://www.w3.org/2000/svg"
 width="394.000000pt" height="408.000000pt" viewBox="0 0 394.000000 408.000000"
 preserveAspectRatio="xMidYMid meet">

<g transform="translate(0.000000,408.000000) scale(0.100000,-0.100000)"
fill="#000000" stroke="none">
<path d="M1635 3890 c-3 -6 -3 -19 0 -31 5 -14 -4 -37 -29 -75 -20 -30 -35
-61 -34 -68 2 -7 -84 -89 -189 -181 -144 -125 -193 -174 -193 -191 0 -12 -108
-328 -241 -701 l-241 -678 6 -92 c14 -235 76 -249 571 -130 l181 43 -63 -406
c-35 -223 -66 -424 -69 -447 -6 -35 -4 -44 11 -49 11 -5 22 -1 29 8 10 14 32
14 210 -4 165 -16 201 -17 212 -6 8 8 30 168 63 462 27 246 51 449 53 451 2 2
174 -17 383 -41 305 -35 395 -49 457 -70 116 -39 148 -22 148 78 0 36 -65 149
-567 982 -380 630 -567 949 -566 966 2 30 -93 190 -112 190 -8 0 -17 -5 -20
-10z"/>
</g>
</svg>
